PathFileType	4	(X/Y/Z)	Patient4_TMGait_0pt7_02_left_20.trc.trc
DataRate	CameraRate	NumFrames	NumMarkers	Units	OrigDataRate	OrigDataStartFrame	OrigNumFrames
84.848484848485	84.848484848485	4	33	mm	84.848484848485	124	       141
Frame#	Time	Sacral			L.Shoulder			Chest			R.Shoulder			Neck			R.ASIS			L.ASIS			R.Thigh.Superior			R.Thigh.Lateral			R.Thigh.Inferior			R.Patella			L.Thigh.Superior			L.Thigh.Lateral			L.Thigh.Inferior			L.Patella			L.Shank.Superior			L.Shank.Lateral			L.Shank.Inferior			R.Shank.Superior			R.Shank.Lateral			R.Shank.Inferior			R.Heel			R.Midfoot.Superior			R.Midfoot.Lateral			R.Toe			L.Heel			L.Midfoot.Lateral			L.Midfoot.Superior			L.Toe			L.Elbow			L.Wrist			R.Elbow			R.Wrist			
		X1	Y1	Z1	X2	Y2	Z2	X3	Y3	Z3	X4	Y4	Z4	X5	Y5	Z5	X6	Y6	Z6	X7	Y7	Z7	X8	Y8	Z8	X9	Y9	Z9	X10	Y10	Z10	X11	Y11	Z11	X12	Y12	Z12	X13	Y13	Z13	X14	Y14	Z14	X15	Y15	Z15	X16	Y16	Z16	X17	Y17	Z17	X18	Y18	Z18	X19	Y19	Z19	X20	Y20	Z20	X21	Y21	Z21	X22	Y22	Z22	X23	Y23	Z23	X24	Y24	Z24	X25	Y25	Z25	X26	Y26	Z26	X27	Y27	Z27	X28	Y28	Z28	X29	Y29	Z29	X30	Y30	Z30	X31	Y31	Z31	X32	Y32	Z32	X33	Y33	Z33	

124	24.099642857143	821.291959349191	999.468726061443	513.116144597397	982.075438940121	1419.586878341949	308.076149847468	1108.582707827810	1345.861028684480	449.836138994657	1058.191311307983	1426.074138807297	632.629339537669	1008.741083280526	1477.675466581671	460.254980403750	1049.512878265688	929.466019596102	613.700147386691	1020.653557607921	939.926449674021	337.768978162533	1034.760232954011	714.402106535433	593.562059975743	923.374802036719	627.184755173995	656.306020880946	977.972022348265	557.735464855328	576.153310458794	955.476542681049	473.168794378718	580.220506701516	1099.403381098831	768.973328961520	382.703457046218	1064.383087886117	637.342920831401	299.670867584704	1166.837504474189	583.983997732832	367.362130994487	1196.251674600891	517.097169054093	364.177831758478	1180.093864892493	442.676082747328	351.642839854162	1115.394944588242	313.216220867237	298.352153446465	1200.836694281202	214.049389059264	355.315744264214	913.062280953394	392.275140720391	586.910849212971	828.824929920284	299.983180550487	650.072090562419	854.538259763327	200.760528347893	584.341422009607	702.316315937278	44.086470551390	553.080269380040	873.730485869420	95.727107274921	590.089226866070	784.510222925445	36.929559667059	628.440070436618	993.204698971152	40.383303210874	620.231957538815	1117.204700799755	37.570065244225	390.163937638600	1192.012429361419	43.440073931971	310.916569345400	1263.234343682304	117.336821206150	335.991392099013	1396.755891470589	86.050649618369	310.925009575282	782.516150330694	1131.291264414045	236.162052082829	701.164577811306	886.910725230738	286.356855259068	1229.021920888111	1141.055920985024	745.376227260309	1421.759185238734	1259.011028059988	638.689872079921	
125	24.111428571429	822.195563144963	997.579528347773	510.114261648868	982.350912361661	1417.903352146461	305.245907064824	1108.591258070742	1345.082581690306	447.709425739397	1056.784884741377	1425.340875614559	630.070176815314	1007.946883309806	1476.332919873179	457.480193250256	1050.286866997935	927.956007174818	611.946079801479	1022.525045702366	938.350683781222	336.279930776507	1035.461042262684	712.678476668562	591.799102703675	923.702878361461	625.678329613620	654.365368866045	978.208943735934	555.873107817747	574.363755746201	954.845151177398	470.649255126011	578.368986663354	1100.762561140966	765.650038335240	380.922476459256	1063.075725722538	634.259795311377	299.048849092250	1165.626739783974	580.448537493040	366.277895692882	1193.457103338165	512.995284326551	363.815188900451	1177.150943411820	438.794725594091	351.218198634806	1111.366989533818	309.660673225793	298.773635230637	1196.000524893211	210.191838723753	356.044462297592	910.852922078778	390.248149858492	585.287405184837	825.068117905680	299.727828849787	649.020910158636	848.624599555676	199.917079788780	583.703463535216	694.070035862848	44.744463335993	553.242954644481	865.678326963593	95.736592113956	590.013023090518	776.302764395673	37.169365318279	628.563221120650	985.019633139446	40.070511037241	620.359082408909	1109.675071715609	36.823513489874	392.121925843898	1184.020472937816	40.683564347153	312.192609682254	1257.526097037485	112.091891226404	337.059829145698	1390.098446535070	76.719754656122	310.982802801150	781.660167864784	1130.843360651905	234.669881581244	697.679268015633	887.648840497299	286.529735392687	1232.773125275000	1143.982499350653	741.706921236926	1418.898626170792	1270.737207194308	634.210894689409	
126	24.123214285714	822.995984040584	995.918884741852	507.140093020754	982.819463497326	1416.326212804789	302.308035079238	1108.741681913420	1344.370671126429	445.509513850481	1055.590004793069	1424.779728212215	627.431008850329	1007.416022832709	1475.183687919754	454.542993429240	1051.038961834732	926.577586735712	610.069481274807	1024.153195999807	937.095805669561	334.735971371433	1036.481646759900	711.155849944692	589.782874714275	924.570807704058	624.171482148416	652.171533932174	979.150341907051	554.054493735014	572.371411474390	954.962712135038	468.033380825875	576.364172511007	1102.284153183377	763.105614430405	378.916593683551	1062.182935698390	631.964772744935	298.261909705099	1164.916013255490	577.827466819733	365.027149392586	1191.221188948097	509.731490961475	363.335932525773	1174.714978418096	435.589150758007	350.740259113323	1107.824068649528	306.960233722526	298.639923465087	1191.034808296275	206.918094439675	356.546143832716	909.244412375897	388.218742281047	583.556858011285	821.747938963996	299.649857574179	647.859834570759	842.997873034743	199.215727114426	583.028317868774	685.880163157385	45.832063582390	553.446542130543	857.810542267976	95.837305117365	589.994798021570	768.160956163892	37.595359777729	628.676724137584	976.891514240789	39.709208727478	620.486005787499	1101.416419713130	36.606902707657	393.434564055441	1175.521426028189	38.562722411371	313.042308031938	1251.246027991087	107.497655427368	337.977310223127	1382.919154587996	68.085364554086	311.231830893006	782.000878491797	1129.590832660528	232.825135814826	695.695731407144	887.441213243206	286.028333822180	1235.650039855661	1146.394187306221	738.305087402157	1415.400692606287	1281.048429731562	630.244332626827	
127	24.135000000000	823.680514186116	994.566478007498	504.223618042683	983.437226117687	1414.951671740071	299.323007929045	1109.015559345686	1343.775021626382	443.250411060442	1054.664138622755	1424.429963096400	624.748155524034	1007.158832325777	1474.295920322753	451.511372905643	1051.732957444158	925.413500020160	608.049496167027	1025.497325240867	936.229628623381	333.065850138859	1037.713659507188	709.917923961798	587.535517397968	925.866703578517	622.769708092816	649.776921787048	980.689242008615	552.375723863131	570.246038295267	955.766379174269	465.415988654816	574.338250612062	1103.909386427547	761.448492115433	376.691190520609	1061.768342345436	630.535637639618	297.242828315216	1164.671685667840	576.146061889564	363.592607689291	1189.556284737281	507.366794912455	362.679634273321	1172.807858065149	433.116520269502	350.174965896716	1104.834681612213	305.138287569497	297.949896859764	1186.077369146393	204.303387668469	356.804929802710	908.168972027635	386.300304577534	581.826379620140	818.797970973478	299.853869133988	646.640528513806	837.667012604068	198.765324011468	582.377675086567	677.786475345721	47.481455852362	553.694515732646	850.182558706310	96.046421029048	590.060763255671	760.108609446142	38.277736823890	628.786723333023	968.819580739573	39.310220374946	620.606366951771	1092.817955627543	36.767289345959	394.143219286217	1166.868521145410	37.070439881426	313.491672171224	1244.570229922561	103.753105497135	338.703300632568	1375.452105323790	60.691873934039	311.598752523071	783.497988063903	1127.619098075627	230.624536344998	695.283644362489	886.295448573438	284.805230687422	1237.657044169671	1148.205466251679	735.215283867511	1411.409550925865	1289.869745200726	626.805359281084	
